<svg width="64" height="64" viewBox="0 0 64 64" fill="none" xmlns="http://www.w3.org/2000/svg">
<g clip-path="url(#clip0_398_983)">
<rect width="64" height="64" rx="32" fill="#3A79D8"/>
<g clip-path="url(#clip1_398_983)">
<path d="M61.7781 56.0242C61.5678 56.4262 61.3474 56.8166 61.1203 57.1952C61.1195 57.1944 61.1195 57.1959 61.1195 57.1959C58.9212 60.8364 55.9516 63.3227 53.3269 63.9167C51.2839 65.1126 48.9596 66.1174 46.4258 66.8863C42.788 67.9907 38.7166 68.6088 34.4189 68.6088C30.1211 68.6088 26.3538 68.0361 22.8208 67.0079C20.1368 66.2272 17.6806 65.1836 15.5328 63.9298C12.813 63.3425 9.71071 60.7068 7.47943 56.851C7.3234 56.5815 7.17103 56.3054 7.0238 56.0242C3.94059 50.128 4.08196 43.969 7.33952 42.2663C8.17973 41.8269 9.1452 41.728 10.1685 41.9228C10.9494 41.0579 11.8409 40.2391 12.8305 39.4738C10.192 36.2032 8.64708 32.2456 8.64708 27.9804C8.64708 16.7432 19.364 7.63281 32.5832 7.63281C45.8024 7.63281 56.52 16.7432 56.52 27.9804C56.52 31.5432 55.4417 34.8908 53.5489 37.8033C55.5545 39.0029 57.2818 40.3885 58.6634 41.9169C59.675 41.7295 60.6302 41.8313 61.4624 42.2663C64.7199 43.969 64.8613 50.128 61.7781 56.0242Z" fill="#EBC140"/>
<path d="M19.4824 43.9453C23.0945 46.9611 27.7717 48.7825 32.8833 48.7825C37.9949 48.7825 42.6721 46.9619 46.2842 43.9453C42.3234 45.8399 37.7517 46.9208 32.8833 46.9208C28.0149 46.9208 23.4432 45.8399 19.4824 43.9453Z" fill="#D8AA28"/>
<path d="M46.447 15.9488C47.0241 14.8438 45.9657 13.1513 44.0829 12.1685C42.2001 11.1858 40.206 11.2848 39.6289 12.3898C39.0518 13.4948 40.1103 15.1873 41.9931 16.1701C43.8758 17.1529 45.8699 17.0539 46.447 15.9488Z" fill="#F1D478"/>
<path d="M17.6348 26.9561C18.6757 26.9561 19.5196 25.8868 19.5196 24.5679C19.5196 23.2489 18.6757 22.1797 17.6348 22.1797C16.5939 22.1797 15.75 23.2489 15.75 24.5679C15.75 25.8868 16.5939 26.9561 17.6348 26.9561Z" fill="#D8AA28"/>
<path d="M18.0523 26.6147C19.3109 26.6147 20.3312 25.412 20.3312 23.9284C20.3312 22.4449 19.3109 21.2422 18.0523 21.2422C16.7937 21.2422 15.7734 22.4449 15.7734 23.9284C15.7734 25.412 16.7937 26.6147 18.0523 26.6147Z" fill="#3A3A3A"/>
<path d="M17.7816 23.6996C18.087 23.6996 18.3346 23.452 18.3346 23.1467C18.3346 22.8413 18.087 22.5938 17.7816 22.5938C17.4761 22.5938 17.2285 22.8413 17.2285 23.1467C17.2285 23.452 17.4761 23.6996 17.7816 23.6996Z" fill="white"/>
<path d="M49.7403 26.5186C50.7812 26.5186 51.6251 25.4493 51.6251 24.1304C51.6251 22.8114 50.7812 21.7422 49.7403 21.7422C48.6993 21.7422 47.8555 22.8114 47.8555 24.1304C47.8555 25.4493 48.6993 26.5186 49.7403 26.5186Z" fill="#D8AA28"/>
<path d="M49.3141 26.2006C50.5726 26.2006 51.5929 24.998 51.5929 23.5144C51.5929 22.0308 50.5726 20.8281 49.3141 20.8281C48.0555 20.8281 47.0352 22.0308 47.0352 23.5144C47.0352 24.998 48.0555 26.2006 49.3141 26.2006Z" fill="#1C1D1D"/>
<path d="M49.5843 23.2855C49.8898 23.2855 50.1374 23.038 50.1374 22.7326C50.1374 22.4272 49.8898 22.1797 49.5843 22.1797C49.2789 22.1797 49.0312 22.4272 49.0312 22.7326C49.0312 23.038 49.2789 23.2855 49.5843 23.2855Z" fill="white"/>
<path d="M22.8199 67.0095C20.1359 66.2289 17.6797 65.1853 15.5319 63.9315C12.8121 63.3441 9.7098 60.7084 7.47852 56.8526C9.99329 58.2529 13.571 62.4236 14.713 61.7022C14.9752 61.536 15.737 61.3456 15.091 59.4737C14.4595 57.6428 14.0478 57.0445 13.6017 55.8757C12.8113 53.8038 13.6142 54.0939 15.3393 57.6128C16.5135 60.0061 17.2768 61.5631 18.7521 63.2577C20.6384 65.4255 22.51 66.4632 22.8199 67.0095Z" fill="#D8AA28"/>
<path d="M61.1196 57.1975C58.9213 60.838 55.9516 63.3244 53.3269 63.9183C51.2839 65.1142 48.9596 66.119 46.4258 66.888C46.9092 66.3131 48.6512 65.2746 50.4063 63.2577C51.8817 61.5631 52.6449 60.0061 53.8192 57.6128C55.545 54.0939 56.3471 53.8038 55.5567 55.8757C55.1106 57.0445 54.699 57.6428 54.0675 59.4737C53.4214 61.3456 54.1833 61.536 54.4462 61.7022C55.5055 62.3716 58.6612 58.8299 61.1196 57.1975Z" fill="#D8AA28"/>
<path d="M48.8149 34.5339C48.7401 34.6753 48.6522 34.8218 48.5541 34.9712L48.5519 34.9748H48.5511C48.4647 35.1074 48.3702 35.2414 48.2684 35.3769C48.2003 35.4677 48.1292 35.5592 48.0545 35.6515C47.319 36.5655 46.303 37.519 45.3185 38.2418C41.3196 41.1763 36.7369 41.1009 33.9013 41.054C31.5265 41.0145 28.433 40.9281 25.1322 39.1514C24.1609 38.6285 23.18 37.9635 22.3369 37.2715H22.3362C21.6249 36.6878 21.011 36.0851 20.584 35.5321C20.5393 35.475 20.4968 35.4179 20.458 35.3622C20.2741 35.1066 20.1342 34.8635 20.047 34.6409C19.9276 34.3377 19.9049 34.0704 20.0023 33.858C20.5788 32.5983 24.5718 34.9411 28.6894 32.8649C31.6583 31.368 32.026 28.9183 34.0669 28.9776C36.0191 29.0347 36.2146 31.2904 38.7829 32.7001C43.1422 35.092 48.2303 31.6939 49.0419 33.1132C49.2346 33.4508 49.1247 33.9547 48.8149 34.5339Z" fill="#F68729"/>
<path d="M48.2675 35.374C48.1993 35.4648 48.2741 35.3726 48.1993 35.4648C47.0053 36.0053 44.7733 36.9266 42.3391 36.9823C41.4037 37.0035 36.8202 36.4652 33.3217 36.4857C31.5036 36.4967 29.5946 36.8021 26.2894 36.8175C24.8661 36.8241 21.7206 35.8808 20.4731 35.3813L20.457 35.3594C20.6453 35.4106 20.8621 35.4656 21.1126 35.5234C23.0048 35.9562 24.7914 36.0346 25.5042 36.0624C25.5042 36.0624 25.6426 36.0676 25.7928 36.0719C29.8356 36.2052 30.9007 35.1814 34.9765 35.4934C38.6442 35.7739 39.0061 36.463 42.8358 36.2792C44.9652 36.1767 46.7702 35.7695 46.9672 35.7241C47.5005 35.6018 47.9334 35.4795 48.2675 35.374Z" fill="#3A3A3A"/>
</g>
</g>
<defs>
<clipPath id="clip0_398_983">
<rect width="64" height="64" rx="32" fill="white"/>
</clipPath>
<clipPath id="clip1_398_983">
<rect width="59.2" height="60.976" fill="white" transform="translate(4.80078 7.63281)"/>
</clipPath>
</defs>
</svg>
