<svg width="218" height="218" viewBox="0 0 218 218" fill="none" xmlns="http://www.w3.org/2000/svg">
<g clip-path="url(#clip0_338_427)">
<path d="M91.7991 23H78.0391V29.88H91.7991V23Z" fill="#241A8E"/>
<path d="M126.2 23H119.32V29.88H126.2V23Z" fill="#241A8E"/>
<path d="M139.96 23H133.08V29.88H139.96V23Z" fill="#241A8E"/>
<path d="M119.319 29.8828H112.439V36.7628H119.319V29.8828Z" fill="#241A8E"/>
<path d="M133.079 29.8828H126.199V36.7628H133.079V29.8828Z" fill="#241A8E"/>
<path d="M84.9191 36.7578H78.0391V43.6378H84.9191V36.7578Z" fill="#241A8E"/>
<path d="M119.32 36.7578H98.6797V43.6378H119.32V36.7578Z" fill="#241A8E"/>
<path d="M139.959 36.7578H126.199V43.6378H139.959V36.7578Z" fill="#241A8E"/>
<path d="M91.7991 43.6406H78.0391V50.5206H91.7991V43.6406Z" fill="#241A8E"/>
<path d="M105.56 43.6406H98.6797V50.5206H105.56V43.6406Z" fill="#241A8E"/>
<path d="M119.319 43.6406H112.439V50.5206H119.319V43.6406Z" fill="#241A8E"/>
<path d="M139.959 43.6406H126.199V50.5206H139.959V43.6406Z" fill="#241A8E"/>
<path d="M105.559 50.5234H78.0391V57.4034H105.559V50.5234Z" fill="#241A8E"/>
<path d="M126.2 50.5234H119.32V57.4034H126.2V50.5234Z" fill="#241A8E"/>
<path d="M139.96 50.5234H133.08V57.4034H139.96V50.5234Z" fill="#241A8E"/>
<path d="M91.7999 57.3984H84.9199V64.2784H91.7999V57.3984Z" fill="#241A8E"/>
<path d="M112.441 57.3984H105.561V64.2784H112.441V57.3984Z" fill="#241A8E"/>
<path d="M126.2 57.3984H119.32V64.2784H126.2V57.3984Z" fill="#241A8E"/>
<path d="M139.96 57.3984H133.08V64.2784H139.96V57.3984Z" fill="#241A8E"/>
<path d="M84.9191 64.2812H78.0391V71.1613H84.9191V64.2812Z" fill="#241A8E"/>
<path d="M98.6808 64.2812H91.8008V71.1613H98.6808V64.2812Z" fill="#241A8E"/>
<path d="M112.441 64.2812H105.561V71.1613H112.441V64.2812Z" fill="#241A8E"/>
<path d="M126.2 64.2812H119.32V71.1613H126.2V64.2812Z" fill="#241A8E"/>
<path d="M139.96 64.2812H133.08V71.1613H139.96V64.2812Z" fill="#241A8E"/>
<path d="M91.7999 71.1562H84.9199V78.0363H91.7999V71.1562Z" fill="#241A8E"/>
<path d="M105.56 71.1562H98.6797V78.0363H105.56V71.1562Z" fill="#241A8E"/>
<path d="M139.96 71.1562H119.32V78.0363H139.96V71.1562Z" fill="#241A8E"/>
<path d="M50.52 78.0391H23V84.9191H50.52V78.0391Z" fill="#241A8E"/>
<path d="M71.1593 78.0391H64.2793V84.9191H71.1593V78.0391Z" fill="#241A8E"/>
<path d="M84.9191 78.0391H78.0391V84.9191H84.9191V78.0391Z" fill="#241A8E"/>
<path d="M126.199 78.0391H112.439V84.9191H126.199V78.0391Z" fill="#241A8E"/>
<path d="M146.84 78.0391H133.08V84.9191H146.84V78.0391Z" fill="#241A8E"/>
<path d="M181.24 78.0391H160.6V84.9191H181.24V78.0391Z" fill="#241A8E"/>
<path d="M194.999 78.0391H188.119V84.9191H194.999V78.0391Z" fill="#241A8E"/>
<path d="M50.52 84.9219H23V91.8019H50.52V84.9219Z" fill="#241A8E"/>
<path d="M91.7991 84.9219H78.0391V91.8019H91.7991V84.9219Z" fill="#241A8E"/>
<path d="M146.839 84.9219H126.199V91.8019H146.839V84.9219Z" fill="#241A8E"/>
<path d="M167.481 84.9219H153.721V91.8019H167.481V84.9219Z" fill="#241A8E"/>
<path d="M194.999 84.9219H188.119V91.8019H194.999V84.9219Z" fill="#241A8E"/>
<path d="M36.76 91.7969H23V98.6769H36.76V91.7969Z" fill="#241A8E"/>
<path d="M71.1593 91.7969H64.2793V98.6769H71.1593V91.7969Z" fill="#241A8E"/>
<path d="M126.199 91.7969H112.439V98.6769H126.199V91.7969Z" fill="#241A8E"/>
<path d="M195 91.7969H167.48V98.6769H195V91.7969Z" fill="#241A8E"/>
<path d="M29.88 98.6797H23V105.56H29.88V98.6797Z" fill="#241A8E"/>
<path d="M64.2795 98.6797H50.5195V105.56H64.2795V98.6797Z" fill="#241A8E"/>
<path d="M84.9191 98.6797H78.0391V105.56H84.9191V98.6797Z" fill="#241A8E"/>
<path d="M112.44 98.6797H98.6797V105.56H112.44V98.6797Z" fill="#241A8E"/>
<path d="M133.08 98.6797H119.32V105.56H133.08V98.6797Z" fill="#241A8E"/>
<path d="M160.601 98.6797H139.961V105.56H160.601V98.6797Z" fill="#241A8E"/>
<path d="M181.24 98.6797H167.48V105.56H181.24V98.6797Z" fill="#241A8E"/>
<path d="M194.999 98.6797H188.119V105.56H194.999V98.6797Z" fill="#241A8E"/>
<path d="M50.5206 105.562H43.6406V112.443H50.5206V105.562Z" fill="#241A8E"/>
<path d="M78.0404 105.562H57.4004V112.443H78.0404V105.562Z" fill="#241A8E"/>
<path d="M91.7999 105.562H84.9199V112.443H91.7999V105.562Z" fill="#241A8E"/>
<path d="M105.56 105.562H98.6797V112.443H105.56V105.562Z" fill="#241A8E"/>
<path d="M133.079 105.562H126.199V112.443H133.079V105.562Z" fill="#241A8E"/>
<path d="M174.36 105.562H146.84V112.443H174.36V105.562Z" fill="#241A8E"/>
<path d="M195 105.562H181.24V112.443H195V105.562Z" fill="#241A8E"/>
<path d="M50.5198 112.438H36.7598V119.318H50.5198V112.438Z" fill="#241A8E"/>
<path d="M64.2804 112.438H57.4004V119.318H64.2804V112.438Z" fill="#241A8E"/>
<path d="M84.9202 112.438H71.1602V119.318H84.9202V112.438Z" fill="#241A8E"/>
<path d="M105.561 112.438H91.8008V119.318H105.561V112.438Z" fill="#241A8E"/>
<path d="M139.959 112.438H126.199V119.318H139.959V112.438Z" fill="#241A8E"/>
<path d="M160.601 112.438H153.721V119.318H160.601V112.438Z" fill="#241A8E"/>
<path d="M174.36 112.438H167.48V119.318H174.36V112.438Z" fill="#241A8E"/>
<path d="M195 112.438H181.24V119.318H195V112.438Z" fill="#241A8E"/>
<path d="M36.7609 119.32H29.8809V126.2H36.7609V119.32Z" fill="#241A8E"/>
<path d="M50.5206 119.32H43.6406V126.2H50.5206V119.32Z" fill="#241A8E"/>
<path d="M71.1593 119.32H64.2793V126.2H71.1593V119.32Z" fill="#241A8E"/>
<path d="M98.6799 119.32H84.9199V126.2H98.6799V119.32Z" fill="#241A8E"/>
<path d="M112.441 119.32H105.561V126.2H112.441V119.32Z" fill="#241A8E"/>
<path d="M146.839 119.32H126.199V126.2H146.839V119.32Z" fill="#241A8E"/>
<path d="M174.361 119.32H153.721V126.2H174.361V119.32Z" fill="#241A8E"/>
<path d="M188.12 119.32H181.24V126.2H188.12V119.32Z" fill="#241A8E"/>
<path d="M29.88 126.203H23V133.083H29.88V126.203Z" fill="#241A8E"/>
<path d="M43.6398 126.203H36.7598V133.083H43.6398V126.203Z" fill="#241A8E"/>
<path d="M64.2795 126.203H50.5195V133.083H64.2795V126.203Z" fill="#241A8E"/>
<path d="M78.0402 126.203H71.1602V133.083H78.0402V126.203Z" fill="#241A8E"/>
<path d="M98.6799 126.203H84.9199V133.083H98.6799V126.203Z" fill="#241A8E"/>
<path d="M112.441 126.203H105.561V133.083H112.441V126.203Z" fill="#241A8E"/>
<path d="M126.2 126.203H119.32V133.083H126.2V126.203Z" fill="#241A8E"/>
<path d="M146.841 126.203H139.961V133.083H146.841V126.203Z" fill="#241A8E"/>
<path d="M195 126.203H181.24V133.083H195V126.203Z" fill="#241A8E"/>
<path d="M71.1606 133.078H43.6406V139.958H71.1606V133.078Z" fill="#241A8E"/>
<path d="M91.7999 133.078H84.9199V139.958H91.7999V133.078Z" fill="#241A8E"/>
<path d="M105.56 133.078H98.6797V139.958H105.56V133.078Z" fill="#241A8E"/>
<path d="M167.48 133.078H133.08V139.958H167.48V133.078Z" fill="#241A8E"/>
<path d="M188.12 133.078H181.24V139.958H188.12V133.078Z" fill="#241A8E"/>
<path d="M84.9191 139.961H78.0391V146.841H84.9191V139.961Z" fill="#241A8E"/>
<path d="M119.321 139.961H105.561V146.841H119.321V139.961Z" fill="#241A8E"/>
<path d="M139.959 139.961H126.199V146.841H139.959V139.961Z" fill="#241A8E"/>
<path d="M181.24 139.961H160.6V146.841H181.24V139.961Z" fill="#241A8E"/>
<path d="M112.441 146.844H91.8008V153.724H112.441V146.844Z" fill="#241A8E"/>
<path d="M126.2 146.844H119.32V153.724H126.2V146.844Z" fill="#241A8E"/>
<path d="M139.96 146.844H133.08V153.724H139.96V146.844Z" fill="#241A8E"/>
<path d="M153.72 146.844H146.84V153.724H153.72V146.844Z" fill="#241A8E"/>
<path d="M167.48 146.844H160.6V153.724H167.48V146.844Z" fill="#241A8E"/>
<path d="M194.999 146.844H174.359V153.724H194.999V146.844Z" fill="#241A8E"/>
<path d="M98.6808 153.719H91.8008V160.599H98.6808V153.719Z" fill="#241A8E"/>
<path d="M139.961 153.719H105.561V160.599H139.961V153.719Z" fill="#241A8E"/>
<path d="M167.48 153.719H160.6V160.599H167.48V153.719Z" fill="#241A8E"/>
<path d="M195 153.719H181.24V160.599H195V153.719Z" fill="#241A8E"/>
<path d="M105.56 160.602H84.9199V167.482H105.56V160.602Z" fill="#241A8E"/>
<path d="M119.319 160.602H112.439V167.482H119.319V160.602Z" fill="#241A8E"/>
<path d="M167.479 160.602H126.199V167.482H167.479V160.602Z" fill="#241A8E"/>
<path d="M181.239 160.602H174.359V167.482H181.239V160.602Z" fill="#241A8E"/>
<path d="M194.999 160.602H188.119V167.482H194.999V160.602Z" fill="#241A8E"/>
<path d="M84.9191 167.477H78.0391V174.357H84.9191V167.477Z" fill="#241A8E"/>
<path d="M112.441 167.477H105.561V174.357H112.441V167.477Z" fill="#241A8E"/>
<path d="M139.959 167.477H126.199V174.357H139.959V167.477Z" fill="#241A8E"/>
<path d="M153.72 167.477H146.84V174.357H153.72V167.477Z" fill="#241A8E"/>
<path d="M167.48 167.477H160.6V174.357H167.48V167.477Z" fill="#241A8E"/>
<path d="M195 167.477H181.24V174.357H195V167.477Z" fill="#241A8E"/>
<path d="M84.9191 174.359H78.0391V181.239H84.9191V174.359Z" fill="#241A8E"/>
<path d="M105.561 174.359H91.8008V181.239H105.561V174.359Z" fill="#241A8E"/>
<path d="M119.319 174.359H112.439V181.239H119.319V174.359Z" fill="#241A8E"/>
<path d="M133.079 174.359H126.199V181.239H133.079V174.359Z" fill="#241A8E"/>
<path d="M153.721 174.359H139.961V181.239H153.721V174.359Z" fill="#241A8E"/>
<path d="M188.12 174.359H167.48V181.239H188.12V174.359Z" fill="#241A8E"/>
<path d="M91.7991 181.242H78.0391V188.122H91.7991V181.242Z" fill="#241A8E"/>
<path d="M133.079 181.242H112.439V188.122H133.079V181.242Z" fill="#241A8E"/>
<path d="M146.841 181.242H139.961V188.122H146.841V181.242Z" fill="#241A8E"/>
<path d="M167.48 181.242H160.6V188.122H167.48V181.242Z" fill="#241A8E"/>
<path d="M194.999 181.242H174.359V188.122H194.999V181.242Z" fill="#241A8E"/>
<path d="M91.7991 188.117H78.0391V194.997H91.7991V188.117Z" fill="#241A8E"/>
<path d="M119.321 188.117H105.561V194.997H119.321V188.117Z" fill="#241A8E"/>
<path d="M133.079 188.117H126.199V194.997H133.079V188.117Z" fill="#241A8E"/>
<path d="M194.999 188.117H174.359V194.997H194.999V188.117Z" fill="#241A8E"/>
<path d="M71.16 23H23V29.88H71.16V23Z" fill="#241A8E"/>
<path d="M29.88 29.8828H23V64.2828H29.88V29.8828Z" fill="#241A8E"/>
<path d="M71.1593 29.8828H64.2793V64.2828H71.1593V29.8828Z" fill="#241A8E"/>
<path d="M71.16 64.2812H23V71.1613H71.16V64.2812Z" fill="#241A8E"/>
<path d="M71.16 23H23V29.88H71.16V23Z" fill="#241A8E"/>
<path d="M29.88 29.8828H23V36.7628H29.88V29.8828Z" fill="#241A8E"/>
<path d="M71.1593 29.8828H64.2793V36.7628H71.1593V29.8828Z" fill="#241A8E"/>
<path d="M29.88 36.7578H23V43.6378H29.88V36.7578Z" fill="#241A8E"/>
<path d="M71.1593 36.7578H64.2793V43.6378H71.1593V36.7578Z" fill="#241A8E"/>
<path d="M29.88 43.6406H23V50.5206H29.88V43.6406Z" fill="#241A8E"/>
<path d="M71.1593 43.6406H64.2793V50.5206H71.1593V43.6406Z" fill="#241A8E"/>
<path d="M29.88 50.5234H23V57.4034H29.88V50.5234Z" fill="#241A8E"/>
<path d="M71.1593 50.5234H64.2793V57.4034H71.1593V50.5234Z" fill="#241A8E"/>
<path d="M29.88 57.3984H23V64.2784H29.88V57.3984Z" fill="#241A8E"/>
<path d="M71.1593 57.3984H64.2793V64.2784H71.1593V57.3984Z" fill="#241A8E"/>
<path d="M71.16 64.2812H23V71.1613H71.16V64.2812Z" fill="#241A8E"/>
<path d="M57.3998 36.7578H36.7598V57.3978H57.3998V36.7578Z" fill="#241A8E"/>
<path d="M195 23H146.84V29.88H195V23Z" fill="#241A8E"/>
<path d="M153.72 29.8828H146.84V64.2828H153.72V29.8828Z" fill="#241A8E"/>
<path d="M194.999 29.8828H188.119V64.2828H194.999V29.8828Z" fill="#241A8E"/>
<path d="M195 64.2812H146.84V71.1613H195V64.2812Z" fill="#241A8E"/>
<path d="M195 23H146.84V29.88H195V23Z" fill="#241A8E"/>
<path d="M153.72 29.8828H146.84V36.7628H153.72V29.8828Z" fill="#241A8E"/>
<path d="M194.999 29.8828H188.119V36.7628H194.999V29.8828Z" fill="#241A8E"/>
<path d="M153.72 36.7578H146.84V43.6378H153.72V36.7578Z" fill="#241A8E"/>
<path d="M194.999 36.7578H188.119V43.6378H194.999V36.7578Z" fill="#241A8E"/>
<path d="M153.72 43.6406H146.84V50.5206H153.72V43.6406Z" fill="#241A8E"/>
<path d="M194.999 43.6406H188.119V50.5206H194.999V43.6406Z" fill="#241A8E"/>
<path d="M153.72 50.5234H146.84V57.4034H153.72V50.5234Z" fill="#241A8E"/>
<path d="M194.999 50.5234H188.119V57.4034H194.999V50.5234Z" fill="#241A8E"/>
<path d="M153.72 57.3984H146.84V64.2784H153.72V57.3984Z" fill="#241A8E"/>
<path d="M194.999 57.3984H188.119V64.2784H194.999V57.3984Z" fill="#241A8E"/>
<path d="M195 64.2812H146.84V71.1613H195V64.2812Z" fill="#241A8E"/>
<path d="M181.24 36.7578H160.6V57.3978H181.24V36.7578Z" fill="#241A8E"/>
<path d="M71.16 146.844H23V153.724H71.16V146.844Z" fill="#241A8E"/>
<path d="M29.88 153.719H23V188.119H29.88V153.719Z" fill="#241A8E"/>
<path d="M71.1593 153.719H64.2793V188.119H71.1593V153.719Z" fill="#241A8E"/>
<path d="M71.16 188.117H23V194.997H71.16V188.117Z" fill="#241A8E"/>
<path d="M71.16 146.844H23V153.724H71.16V146.844Z" fill="#241A8E"/>
<path d="M29.88 153.719H23V160.599H29.88V153.719Z" fill="#241A8E"/>
<path d="M71.1593 153.719H64.2793V160.599H71.1593V153.719Z" fill="#241A8E"/>
<path d="M29.88 160.602H23V167.482H29.88V160.602Z" fill="#241A8E"/>
<path d="M71.1593 160.602H64.2793V167.482H71.1593V160.602Z" fill="#241A8E"/>
<path d="M29.88 167.477H23V174.357H29.88V167.477Z" fill="#241A8E"/>
<path d="M71.1593 167.477H64.2793V174.357H71.1593V167.477Z" fill="#241A8E"/>
<path d="M29.88 174.359H23V181.239H29.88V174.359Z" fill="#241A8E"/>
<path d="M71.1593 174.359H64.2793V181.239H71.1593V174.359Z" fill="#241A8E"/>
<path d="M29.88 181.242H23V188.122H29.88V181.242Z" fill="#241A8E"/>
<path d="M71.1593 181.242H64.2793V188.122H71.1593V181.242Z" fill="#241A8E"/>
<path d="M71.16 188.117H23V194.997H71.16V188.117Z" fill="#241A8E"/>
<path d="M57.3998 160.602H36.7598V181.242H57.3998V160.602Z" fill="#241A8E"/>
</g>
<defs>
<clipPath id="clip0_338_427">
<rect width="172" height="172" fill="white" transform="translate(23 23)"/>
</clipPath>
</defs>
</svg>
