<svg width="218" height="218" viewBox="0 0 218 218" fill="none" xmlns="http://www.w3.org/2000/svg">
<g clip-path="url(#clip0_338_429)">
<path d="M91.7999 23H84.9199V29.88H91.7999V23Z" fill="#3A79D8"/>
<path d="M126.2 23H119.32V29.88H126.2V23Z" fill="#3A79D8"/>
<path d="M139.96 23H133.08V29.88H139.96V23Z" fill="#3A79D8"/>
<path d="M91.7991 29.8828H78.0391V36.7628H91.7991V29.8828Z" fill="#3A79D8"/>
<path d="M126.2 29.8828H98.6797V36.7628H126.2V29.8828Z" fill="#3A79D8"/>
<path d="M105.56 36.7578H84.9199V43.6378H105.56V36.7578Z" fill="#3A79D8"/>
<path d="M91.7991 43.6406H78.0391V50.5206H91.7991V43.6406Z" fill="#3A79D8"/>
<path d="M105.56 43.6406H98.6797V50.5206H105.56V43.6406Z" fill="#3A79D8"/>
<path d="M119.319 43.6406H112.439V50.5206H119.319V43.6406Z" fill="#3A79D8"/>
<path d="M139.959 43.6406H126.199V50.5206H139.959V43.6406Z" fill="#3A79D8"/>
<path d="M98.6808 50.5234H91.8008V57.4034H98.6808V50.5234Z" fill="#3A79D8"/>
<path d="M112.441 50.5234H105.561V57.4034H112.441V50.5234Z" fill="#3A79D8"/>
<path d="M139.959 50.5234H126.199V57.4034H139.959V50.5234Z" fill="#3A79D8"/>
<path d="M84.9191 57.3984H78.0391V64.2784H84.9191V57.3984Z" fill="#3A79D8"/>
<path d="M98.6808 57.3984H91.8008V64.2784H98.6808V57.3984Z" fill="#3A79D8"/>
<path d="M133.079 57.3984H112.439V64.2784H133.079V57.3984Z" fill="#3A79D8"/>
<path d="M84.9191 64.2812H78.0391V71.1613H84.9191V64.2812Z" fill="#3A79D8"/>
<path d="M98.6808 64.2812H91.8008V71.1613H98.6808V64.2812Z" fill="#3A79D8"/>
<path d="M112.441 64.2812H105.561V71.1613H112.441V64.2812Z" fill="#3A79D8"/>
<path d="M126.2 64.2812H119.32V71.1613H126.2V64.2812Z" fill="#3A79D8"/>
<path d="M139.96 64.2812H133.08V71.1613H139.96V64.2812Z" fill="#3A79D8"/>
<path d="M112.441 71.1562H105.561V78.0363H112.441V71.1562Z" fill="#3A79D8"/>
<path d="M139.96 71.1562H133.08V78.0363H139.96V71.1562Z" fill="#3A79D8"/>
<path d="M57.4 78.0391H23V84.9191H57.4V78.0391Z" fill="#3A79D8"/>
<path d="M98.6793 78.0391H64.2793V84.9191H98.6793V78.0391Z" fill="#3A79D8"/>
<path d="M112.441 78.0391H105.561V84.9191H112.441V78.0391Z" fill="#3A79D8"/>
<path d="M133.08 78.0391H119.32V84.9191H133.08V78.0391Z" fill="#3A79D8"/>
<path d="M146.841 78.0391H139.961V84.9191H146.841V78.0391Z" fill="#3A79D8"/>
<path d="M160.601 78.0391H153.721V84.9191H160.601V78.0391Z" fill="#3A79D8"/>
<path d="M174.36 78.0391H167.48V84.9191H174.36V78.0391Z" fill="#3A79D8"/>
<path d="M188.12 78.0391H181.24V84.9191H188.12V78.0391Z" fill="#3A79D8"/>
<path d="M64.2809 84.9219H29.8809V91.8019H64.2809V84.9219Z" fill="#3A79D8"/>
<path d="M78.0402 84.9219H71.1602V91.8019H78.0402V84.9219Z" fill="#3A79D8"/>
<path d="M91.7999 84.9219H84.9199V91.8019H91.7999V84.9219Z" fill="#3A79D8"/>
<path d="M146.839 84.9219H126.199V91.8019H146.839V84.9219Z" fill="#3A79D8"/>
<path d="M167.481 84.9219H153.721V91.8019H167.481V84.9219Z" fill="#3A79D8"/>
<path d="M194.999 84.9219H188.119V91.8019H194.999V84.9219Z" fill="#3A79D8"/>
<path d="M57.3998 91.7969H36.7598V98.6769H57.3998V91.7969Z" fill="#3A79D8"/>
<path d="M78.0393 91.7969H64.2793V98.6769H78.0393V91.7969Z" fill="#3A79D8"/>
<path d="M91.7999 91.7969H84.9199V98.6769H91.7999V91.7969Z" fill="#3A79D8"/>
<path d="M119.32 91.7969H98.6797V98.6769H119.32V91.7969Z" fill="#3A79D8"/>
<path d="M133.079 91.7969H126.199V98.6769H133.079V91.7969Z" fill="#3A79D8"/>
<path d="M153.721 91.7969H139.961V98.6769H153.721V91.7969Z" fill="#3A79D8"/>
<path d="M167.48 91.7969H160.6V98.6769H167.48V91.7969Z" fill="#3A79D8"/>
<path d="M181.239 91.7969H174.359V98.6769H181.239V91.7969Z" fill="#3A79D8"/>
<path d="M50.5209 98.6797H29.8809V105.56H50.5209V98.6797Z" fill="#3A79D8"/>
<path d="M105.56 98.6797H71.1602V105.56H105.56V98.6797Z" fill="#3A79D8"/>
<path d="M126.199 98.6797H112.439V105.56H126.199V98.6797Z" fill="#3A79D8"/>
<path d="M146.84 98.6797H133.08V105.56H146.84V98.6797Z" fill="#3A79D8"/>
<path d="M71.1609 105.562H29.8809V112.443H71.1609V105.562Z" fill="#3A79D8"/>
<path d="M91.7999 105.562H84.9199V112.443H91.7999V105.562Z" fill="#3A79D8"/>
<path d="M105.56 105.562H98.6797V112.443H105.56V105.562Z" fill="#3A79D8"/>
<path d="M133.079 105.562H126.199V112.443H133.079V105.562Z" fill="#3A79D8"/>
<path d="M174.36 105.562H146.84V112.443H174.36V105.562Z" fill="#3A79D8"/>
<path d="M195 105.562H181.24V112.443H195V105.562Z" fill="#3A79D8"/>
<path d="M29.88 112.438H23V119.318H29.88V112.438Z" fill="#3A79D8"/>
<path d="M43.6398 112.438H36.7598V119.318H43.6398V112.438Z" fill="#3A79D8"/>
<path d="M64.2795 112.438H50.5195V119.318H64.2795V112.438Z" fill="#3A79D8"/>
<path d="M84.9191 112.438H78.0391V119.318H84.9191V112.438Z" fill="#3A79D8"/>
<path d="M98.6808 112.438H91.8008V119.318H98.6808V112.438Z" fill="#3A79D8"/>
<path d="M112.441 112.438H105.561V119.318H112.441V112.438Z" fill="#3A79D8"/>
<path d="M126.2 112.438H119.32V119.318H126.2V112.438Z" fill="#3A79D8"/>
<path d="M167.48 112.438H133.08V119.318H167.48V112.438Z" fill="#3A79D8"/>
<path d="M29.88 119.32H23V126.2H29.88V119.32Z" fill="#3A79D8"/>
<path d="M84.9195 119.32H50.5195V126.2H84.9195V119.32Z" fill="#3A79D8"/>
<path d="M98.6808 119.32H91.8008V126.2H98.6808V119.32Z" fill="#3A79D8"/>
<path d="M119.319 119.32H112.439V126.2H119.319V119.32Z" fill="#3A79D8"/>
<path d="M153.721 119.32H139.961V126.2H153.721V119.32Z" fill="#3A79D8"/>
<path d="M167.48 119.32H160.6V126.2H167.48V119.32Z" fill="#3A79D8"/>
<path d="M194.999 119.32H174.359V126.2H194.999V119.32Z" fill="#3A79D8"/>
<path d="M29.88 126.203H23V133.083H29.88V126.203Z" fill="#3A79D8"/>
<path d="M64.2804 126.203H57.4004V133.083H64.2804V126.203Z" fill="#3A79D8"/>
<path d="M84.9191 126.203H78.0391V133.083H84.9191V126.203Z" fill="#3A79D8"/>
<path d="M98.6808 126.203H91.8008V133.083H98.6808V126.203Z" fill="#3A79D8"/>
<path d="M112.441 126.203H105.561V133.083H112.441V126.203Z" fill="#3A79D8"/>
<path d="M126.2 126.203H119.32V133.083H126.2V126.203Z" fill="#3A79D8"/>
<path d="M146.841 126.203H139.961V133.083H146.841V126.203Z" fill="#3A79D8"/>
<path d="M195 126.203H181.24V133.083H195V126.203Z" fill="#3A79D8"/>
<path d="M29.88 133.078H23V139.958H29.88V133.078Z" fill="#3A79D8"/>
<path d="M57.3998 133.078H36.7598V139.958H57.3998V133.078Z" fill="#3A79D8"/>
<path d="M71.1593 133.078H64.2793V139.958H71.1593V133.078Z" fill="#3A79D8"/>
<path d="M91.7999 133.078H84.9199V139.958H91.7999V133.078Z" fill="#3A79D8"/>
<path d="M112.441 133.078H105.561V139.958H112.441V133.078Z" fill="#3A79D8"/>
<path d="M174.36 133.078H119.32V139.958H174.36V133.078Z" fill="#3A79D8"/>
<path d="M194.999 133.078H188.119V139.958H194.999V133.078Z" fill="#3A79D8"/>
<path d="M98.6791 139.961H78.0391V146.841H98.6791V139.961Z" fill="#3A79D8"/>
<path d="M139.96 139.961H133.08V146.841H139.96V139.961Z" fill="#3A79D8"/>
<path d="M167.48 139.961H160.6V146.841H167.48V139.961Z" fill="#3A79D8"/>
<path d="M194.999 139.961H188.119V146.841H194.999V139.961Z" fill="#3A79D8"/>
<path d="M84.9191 146.844H78.0391V153.724H84.9191V146.844Z" fill="#3A79D8"/>
<path d="M112.44 146.844H98.6797V153.724H112.44V146.844Z" fill="#3A79D8"/>
<path d="M126.2 146.844H119.32V153.724H126.2V146.844Z" fill="#3A79D8"/>
<path d="M139.96 146.844H133.08V153.724H139.96V146.844Z" fill="#3A79D8"/>
<path d="M153.72 146.844H146.84V153.724H153.72V146.844Z" fill="#3A79D8"/>
<path d="M167.48 146.844H160.6V153.724H167.48V146.844Z" fill="#3A79D8"/>
<path d="M194.999 146.844H174.359V153.724H194.999V146.844Z" fill="#3A79D8"/>
<path d="M105.561 153.719H91.8008V160.599H105.561V153.719Z" fill="#3A79D8"/>
<path d="M139.96 153.719H133.08V160.599H139.96V153.719Z" fill="#3A79D8"/>
<path d="M174.36 153.719H160.6V160.599H174.36V153.719Z" fill="#3A79D8"/>
<path d="M84.9191 160.602H78.0391V167.482H84.9191V160.602Z" fill="#3A79D8"/>
<path d="M112.441 160.602H91.8008V167.482H112.441V160.602Z" fill="#3A79D8"/>
<path d="M126.2 160.602H119.32V167.482H126.2V160.602Z" fill="#3A79D8"/>
<path d="M174.36 160.602H133.08V167.482H174.36V160.602Z" fill="#3A79D8"/>
<path d="M84.9191 167.477H78.0391V174.357H84.9191V167.477Z" fill="#3A79D8"/>
<path d="M112.441 167.477H105.561V174.357H112.441V167.477Z" fill="#3A79D8"/>
<path d="M139.96 167.477H119.32V174.357H139.96V167.477Z" fill="#3A79D8"/>
<path d="M153.72 167.477H146.84V174.357H153.72V167.477Z" fill="#3A79D8"/>
<path d="M167.48 167.477H160.6V174.357H167.48V167.477Z" fill="#3A79D8"/>
<path d="M195 167.477H181.24V174.357H195V167.477Z" fill="#3A79D8"/>
<path d="M98.6791 174.359H78.0391V181.239H98.6791V174.359Z" fill="#3A79D8"/>
<path d="M126.201 174.359H105.561V181.239H126.201V174.359Z" fill="#3A79D8"/>
<path d="M167.48 174.359H160.6V181.239H167.48V174.359Z" fill="#3A79D8"/>
<path d="M181.239 174.359H174.359V181.239H181.239V174.359Z" fill="#3A79D8"/>
<path d="M194.999 174.359H188.119V181.239H194.999V174.359Z" fill="#3A79D8"/>
<path d="M84.9191 181.242H78.0391V188.122H84.9191V181.242Z" fill="#3A79D8"/>
<path d="M98.6808 181.242H91.8008V188.122H98.6808V181.242Z" fill="#3A79D8"/>
<path d="M119.321 181.242H105.561V188.122H119.321V181.242Z" fill="#3A79D8"/>
<path d="M174.36 181.242H133.08V188.122H174.36V181.242Z" fill="#3A79D8"/>
<path d="M188.12 181.242H181.24V188.122H188.12V181.242Z" fill="#3A79D8"/>
<path d="M84.9191 188.117H78.0391V194.997H84.9191V188.117Z" fill="#3A79D8"/>
<path d="M133.079 188.117H112.439V194.997H133.079V188.117Z" fill="#3A79D8"/>
<path d="M194.999 188.117H174.359V194.997H194.999V188.117Z" fill="#3A79D8"/>
<path d="M71.16 23H23V29.88H71.16V23Z" fill="#3A79D8"/>
<path d="M29.88 29.8828H23V64.2828H29.88V29.8828Z" fill="#3A79D8"/>
<path d="M71.1593 29.8828H64.2793V64.2828H71.1593V29.8828Z" fill="#3A79D8"/>
<path d="M71.16 64.2812H23V71.1613H71.16V64.2812Z" fill="#3A79D8"/>
<path d="M71.16 23H23V29.88H71.16V23Z" fill="#3A79D8"/>
<path d="M29.88 29.8828H23V36.7628H29.88V29.8828Z" fill="#3A79D8"/>
<path d="M71.1593 29.8828H64.2793V36.7628H71.1593V29.8828Z" fill="#3A79D8"/>
<path d="M29.88 36.7578H23V43.6378H29.88V36.7578Z" fill="#3A79D8"/>
<path d="M71.1593 36.7578H64.2793V43.6378H71.1593V36.7578Z" fill="#3A79D8"/>
<path d="M29.88 43.6406H23V50.5206H29.88V43.6406Z" fill="#3A79D8"/>
<path d="M71.1593 43.6406H64.2793V50.5206H71.1593V43.6406Z" fill="#3A79D8"/>
<path d="M29.88 50.5234H23V57.4034H29.88V50.5234Z" fill="#3A79D8"/>
<path d="M71.1593 50.5234H64.2793V57.4034H71.1593V50.5234Z" fill="#3A79D8"/>
<path d="M29.88 57.3984H23V64.2784H29.88V57.3984Z" fill="#3A79D8"/>
<path d="M71.1593 57.3984H64.2793V64.2784H71.1593V57.3984Z" fill="#3A79D8"/>
<path d="M71.16 64.2812H23V71.1613H71.16V64.2812Z" fill="#3A79D8"/>
<path d="M57.3998 36.7578H36.7598V57.3978H57.3998V36.7578Z" fill="#3A79D8"/>
<path d="M195 23H146.84V29.88H195V23Z" fill="#3A79D8"/>
<path d="M153.72 29.8828H146.84V64.2828H153.72V29.8828Z" fill="#3A79D8"/>
<path d="M194.999 29.8828H188.119V64.2828H194.999V29.8828Z" fill="#3A79D8"/>
<path d="M195 64.2812H146.84V71.1613H195V64.2812Z" fill="#3A79D8"/>
<path d="M195 23H146.84V29.88H195V23Z" fill="#3A79D8"/>
<path d="M153.72 29.8828H146.84V36.7628H153.72V29.8828Z" fill="#3A79D8"/>
<path d="M194.999 29.8828H188.119V36.7628H194.999V29.8828Z" fill="#3A79D8"/>
<path d="M153.72 36.7578H146.84V43.6378H153.72V36.7578Z" fill="#3A79D8"/>
<path d="M194.999 36.7578H188.119V43.6378H194.999V36.7578Z" fill="#3A79D8"/>
<path d="M153.72 43.6406H146.84V50.5206H153.72V43.6406Z" fill="#3A79D8"/>
<path d="M194.999 43.6406H188.119V50.5206H194.999V43.6406Z" fill="#3A79D8"/>
<path d="M153.72 50.5234H146.84V57.4034H153.72V50.5234Z" fill="#3A79D8"/>
<path d="M194.999 50.5234H188.119V57.4034H194.999V50.5234Z" fill="#3A79D8"/>
<path d="M153.72 57.3984H146.84V64.2784H153.72V57.3984Z" fill="#3A79D8"/>
<path d="M194.999 57.3984H188.119V64.2784H194.999V57.3984Z" fill="#3A79D8"/>
<path d="M195 64.2812H146.84V71.1613H195V64.2812Z" fill="#3A79D8"/>
<path d="M181.24 36.7578H160.6V57.3978H181.24V36.7578Z" fill="#3A79D8"/>
<path d="M71.16 146.844H23V153.724H71.16V146.844Z" fill="#3A79D8"/>
<path d="M29.88 153.719H23V188.119H29.88V153.719Z" fill="#3A79D8"/>
<path d="M71.1593 153.719H64.2793V188.119H71.1593V153.719Z" fill="#3A79D8"/>
<path d="M71.16 188.117H23V194.997H71.16V188.117Z" fill="#3A79D8"/>
<path d="M71.16 146.844H23V153.724H71.16V146.844Z" fill="#3A79D8"/>
<path d="M29.88 153.719H23V160.599H29.88V153.719Z" fill="#3A79D8"/>
<path d="M71.1593 153.719H64.2793V160.599H71.1593V153.719Z" fill="#3A79D8"/>
<path d="M29.88 160.602H23V167.482H29.88V160.602Z" fill="#3A79D8"/>
<path d="M71.1593 160.602H64.2793V167.482H71.1593V160.602Z" fill="#3A79D8"/>
<path d="M29.88 167.477H23V174.357H29.88V167.477Z" fill="#3A79D8"/>
<path d="M71.1593 167.477H64.2793V174.357H71.1593V167.477Z" fill="#3A79D8"/>
<path d="M29.88 174.359H23V181.239H29.88V174.359Z" fill="#3A79D8"/>
<path d="M71.1593 174.359H64.2793V181.239H71.1593V174.359Z" fill="#3A79D8"/>
<path d="M29.88 181.242H23V188.122H29.88V181.242Z" fill="#3A79D8"/>
<path d="M71.1593 181.242H64.2793V188.122H71.1593V181.242Z" fill="#3A79D8"/>
<path d="M71.16 188.117H23V194.997H71.16V188.117Z" fill="#3A79D8"/>
<path d="M57.3998 160.602H36.7598V181.242H57.3998V160.602Z" fill="#3A79D8"/>
</g>
<defs>
<clipPath id="clip0_338_429">
<rect width="172" height="172" fill="white" transform="translate(23 23)"/>
</clipPath>
</defs>
</svg>
