<svg width="108" height="32" viewBox="0 0 108 32" fill="none" xmlns="http://www.w3.org/2000/svg">
<path d="M104.158 32H3.7832C1.6976 32 0 30.2976 0 28.2136V3.7808C0 1.696 1.6976 0 3.7832 0H104.158C106.242 0 108 1.696 108 3.7808V28.2136C108 30.2976 106.242 32 104.158 32Z" fill="#A6A6A6"/>
<path d="M107.226 28.2133C107.226 29.9061 105.855 31.2773 104.159 31.2773H3.78409C2.08889 31.2773 0.712891 29.9061 0.712891 28.2133V3.77894C0.712891 2.08694 2.08889 0.710938 3.78409 0.710938H104.158C105.855 0.710938 107.226 2.08694 107.226 3.77894L107.226 28.2133Z" fill="black"/>
<path d="M24.1033 15.8289C24.0801 13.2505 26.2145 11.9961 26.3121 11.9377C25.1033 10.1753 23.2297 9.93452 22.5713 9.91532C20.9977 9.74972 19.4713 10.8569 18.6697 10.8569C17.8521 10.8569 16.6177 9.93132 15.2873 9.95852C13.5753 9.98492 11.9737 10.9761 11.0953 12.5153C9.28245 15.6537 10.6345 20.2657 12.3713 22.8025C13.2401 24.0449 14.2553 25.4321 15.5841 25.3833C16.8841 25.3297 17.3697 24.5545 18.9385 24.5545C20.4929 24.5545 20.9489 25.3833 22.3041 25.3521C23.6993 25.3297 24.5777 24.1041 25.4161 22.8505C26.4201 21.4265 26.8233 20.0241 26.8393 19.9521C26.8065 19.9409 24.1297 18.9193 24.1033 15.8289Z" fill="white"/>
<path d="M21.5436 8.24776C22.2428 7.37336 22.7212 6.18376 22.5884 4.97656C21.5764 5.02136 20.3108 5.67656 19.582 6.53176C18.9372 7.28536 18.3612 8.52056 18.51 9.68216C19.6468 9.76696 20.814 9.10856 21.5436 8.24776Z" fill="white"/>
<path d="M42.9157 25.2011H41.0989L40.1037 22.0739H36.6445L35.6965 25.2011H33.9277L37.3549 14.5547H39.4717L42.9157 25.2011ZM39.8037 20.7619L38.9037 17.9819C38.8085 17.6979 38.6301 17.0291 38.3669 15.9763H38.3349C38.2301 16.4291 38.0613 17.0979 37.8293 17.9819L36.9453 20.7619H39.8037Z" fill="white"/>
<path d="M51.7287 21.2688C51.7287 22.5744 51.3759 23.6064 50.6703 24.364C50.0383 25.0384 49.2535 25.3752 48.3167 25.3752C47.3055 25.3752 46.5791 25.012 46.1367 24.2856H46.1047V28.3296H44.3991V20.052C44.3991 19.2312 44.3775 18.3888 44.3359 17.5248H45.8359L45.9311 18.7416H45.9631C46.5319 17.8248 47.3951 17.3672 48.5535 17.3672C49.4591 17.3672 50.2151 17.7248 50.8199 18.4408C51.4263 19.1576 51.7287 20.1 51.7287 21.2688ZM49.9911 21.3312C49.9911 20.584 49.8231 19.968 49.4855 19.4832C49.1167 18.9776 48.6215 18.7248 48.0007 18.7248C47.5799 18.7248 47.1975 18.8656 46.8559 19.1432C46.5135 19.4232 46.2895 19.7888 46.1847 20.2416C46.1319 20.4528 46.1055 20.6256 46.1055 20.7616V22.0416C46.1055 22.6 46.2767 23.0712 46.6191 23.456C46.9615 23.8408 47.4063 24.0328 47.9535 24.0328C48.5959 24.0328 49.0959 23.7848 49.4535 23.2904C49.8119 22.7952 49.9911 22.1424 49.9911 21.3312Z" fill="white"/>
<path d="M60.558 21.2688C60.558 22.5744 60.2052 23.6064 59.4988 24.364C58.8676 25.0384 58.0828 25.3752 57.146 25.3752C56.1348 25.3752 55.4084 25.012 54.9668 24.2856H54.9348V28.3296H53.2292V20.052C53.2292 19.2312 53.2076 18.3888 53.166 17.5248H54.666L54.7612 18.7416H54.7932C55.3612 17.8248 56.2244 17.3672 57.3836 17.3672C58.2884 17.3672 59.0444 17.7248 59.6508 18.4408C60.2548 19.1576 60.558 20.1 60.558 21.2688ZM58.8204 21.3312C58.8204 20.584 58.6516 19.968 58.314 19.4832C57.9452 18.9776 57.4516 18.7248 56.83 18.7248C56.4084 18.7248 56.0268 18.8656 55.6844 19.1432C55.342 19.4232 55.1188 19.7888 55.014 20.2416C54.962 20.4528 54.9348 20.6256 54.9348 20.7616V22.0416C54.9348 22.6 55.106 23.0712 55.4468 23.456C55.7892 23.84 56.234 24.0328 56.7828 24.0328C57.4252 24.0328 57.9252 23.7848 58.2828 23.2904C58.6412 22.7952 58.8204 22.1424 58.8204 21.3312Z" fill="white"/>
<path d="M70.431 22.2152C70.431 23.1208 70.1166 23.8576 69.4854 24.4264C68.7918 25.048 67.8262 25.3584 66.5854 25.3584C65.4398 25.3584 64.5214 25.1376 63.8262 24.6952L64.2214 23.2736C64.9702 23.7264 65.7918 23.9536 66.687 23.9536C67.3294 23.9536 67.8294 23.808 68.1886 23.5184C68.5462 23.2288 68.7246 22.84 68.7246 22.3552C68.7246 21.9232 68.5774 21.5592 68.2822 21.264C67.9886 20.9688 67.4982 20.6944 66.8134 20.4408C64.9494 19.7456 64.0182 18.7272 64.0182 17.388C64.0182 16.5128 64.3446 15.7952 64.9982 15.2368C65.6494 14.6776 66.5182 14.3984 67.6046 14.3984C68.5734 14.3984 69.3782 14.5672 70.0206 14.904L69.5942 16.2944C68.9942 15.968 68.3158 15.8048 67.5566 15.8048C66.9566 15.8048 66.4878 15.9528 66.1518 16.2472C65.8678 16.5104 65.7254 16.8312 65.7254 17.2112C65.7254 17.632 65.8878 17.98 66.2142 18.2536C66.4982 18.5064 67.0142 18.78 67.763 19.0752C68.679 19.444 69.3518 19.8752 69.7846 20.3696C70.2158 20.8624 70.431 21.4792 70.431 22.2152Z" fill="white"/>
<path d="M76.0697 18.8022H74.1897V22.5294C74.1897 23.4774 74.5209 23.951 75.1849 23.951C75.4897 23.951 75.7425 23.9246 75.9425 23.8718L75.9897 25.167C75.6537 25.2926 75.2113 25.3558 74.6633 25.3558C73.9897 25.3558 73.4633 25.1502 73.0833 24.7398C72.7049 24.3286 72.5145 23.639 72.5145 22.6702V18.8006H71.3945V17.5206H72.5145V16.115L74.1897 15.6094V17.5206H76.0697V18.8022Z" fill="white"/>
<path d="M84.5524 21.2992C84.5524 22.4792 84.2148 23.448 83.5412 24.2056C82.8348 24.9856 81.8972 25.3744 80.7284 25.3744C79.602 25.3744 78.7052 25.0008 78.0364 24.2536C77.3676 23.5064 77.0332 22.5632 77.0332 21.4264C77.0332 20.2368 77.3772 19.2624 78.0676 18.5048C78.7564 17.7464 79.686 17.3672 80.8548 17.3672C81.9812 17.3672 82.8876 17.7408 83.5716 18.4888C84.226 19.2144 84.5524 20.1512 84.5524 21.2992ZM82.7828 21.3544C82.7828 20.6464 82.6316 20.0392 82.3252 19.5328C81.9676 18.92 81.4564 18.6144 80.794 18.6144C80.1084 18.6144 79.5876 18.9208 79.23 19.5328C78.9236 20.04 78.7724 20.6568 78.7724 21.3864C78.7724 22.0944 78.9236 22.7016 79.23 23.2072C79.5988 23.82 80.114 24.1256 80.7788 24.1256C81.43 24.1256 81.9412 23.8136 82.31 23.1912C82.6244 22.6752 82.7828 22.0616 82.7828 21.3544Z" fill="white"/>
<path d="M90.0974 19.0248C89.9286 18.9936 89.7486 18.9776 89.5598 18.9776C88.9598 18.9776 88.4958 19.204 88.1694 19.6576C87.8854 20.0576 87.743 20.5632 87.743 21.1736V25.2016H86.0382L86.0542 19.9424C86.0542 19.0576 86.0326 18.252 85.9902 17.5256H87.4758L87.5382 18.9944H87.5854C87.7654 18.4896 88.0494 18.0832 88.4382 17.7784C88.8182 17.504 89.2286 17.3672 89.671 17.3672C89.8286 17.3672 89.971 17.3784 90.0974 17.3984V19.0248Z" fill="white"/>
<path d="M97.7247 20.9988C97.7247 21.3044 97.7047 21.562 97.6623 21.7724H92.5455C92.5655 22.5308 92.8127 23.1108 93.2879 23.5108C93.7191 23.8684 94.2767 24.0476 94.9615 24.0476C95.7191 24.0476 96.4103 23.9268 97.0319 23.6844L97.2991 24.8684C96.5727 25.1852 95.7151 25.3428 94.7255 25.3428C93.5351 25.3428 92.6007 24.9924 91.9207 24.2924C91.2423 23.5924 90.9023 22.6524 90.9023 21.4732C90.9023 20.3156 91.2183 19.3516 91.8511 18.5828C92.5135 17.762 93.4087 17.3516 94.5351 17.3516C95.6415 17.3516 96.4791 17.762 97.0479 18.5828C97.4983 19.2348 97.7247 20.0412 97.7247 20.9988ZM96.0983 20.5564C96.1095 20.0508 95.9983 19.614 95.7671 19.2452C95.4719 18.7708 95.0183 18.534 94.4079 18.534C93.8503 18.534 93.3967 18.7652 93.0503 19.2292C92.7663 19.598 92.5975 20.0404 92.5455 20.5556H96.0983V20.5564Z" fill="white"/>
<path d="M39.2406 8.00696C39.2406 8.94856 38.9582 9.65736 38.3942 10.1334C37.8718 10.5726 37.1294 10.7926 36.1678 10.7926C35.691 10.7926 35.283 10.7718 34.9414 10.7302V5.58536C35.387 5.51336 35.867 5.47656 36.3854 5.47656C37.3014 5.47656 37.9918 5.67576 38.4574 6.07416C38.979 6.52456 39.2406 7.16856 39.2406 8.00696ZM38.3566 8.03016C38.3566 7.41976 38.195 6.95176 37.8718 6.62536C37.5486 6.29976 37.0766 6.13656 36.455 6.13656C36.191 6.13656 35.9662 6.15416 35.7798 6.19096V10.1022C35.883 10.1182 36.0718 10.1254 36.3462 10.1254C36.9878 10.1254 37.483 9.94696 37.8318 9.59016C38.1806 9.23336 38.3566 8.71336 38.3566 8.03016Z" fill="white"/>
<path d="M43.928 8.82964C43.928 9.40964 43.7624 9.88484 43.4312 10.2576C43.084 10.6408 42.624 10.832 42.0496 10.832C41.496 10.832 41.0552 10.6488 40.7264 10.2808C40.3984 9.91364 40.2344 9.45044 40.2344 8.89204C40.2344 8.30804 40.4032 7.82884 40.7424 7.45684C41.0816 7.08484 41.5376 6.89844 42.112 6.89844C42.6656 6.89844 43.1104 7.08164 43.4472 7.44884C43.7672 7.80564 43.928 8.26644 43.928 8.82964ZM43.0584 8.85684C43.0584 8.50884 42.9832 8.21044 42.8336 7.96164C42.6576 7.66084 42.4072 7.51044 42.0816 7.51044C41.7448 7.51044 41.4888 7.66084 41.3128 7.96164C41.1624 8.21044 41.088 8.51364 41.088 8.87204C41.088 9.22004 41.1632 9.51844 41.3128 9.76724C41.4944 10.068 41.7472 10.2184 42.0736 10.2184C42.3936 10.2184 42.6448 10.0656 42.8256 9.75924C42.9808 9.50564 43.0584 9.20484 43.0584 8.85684Z" fill="white"/>
<path d="M50.212 6.96875L49.032 10.7399H48.264L47.7752 9.10235C47.6512 8.69355 47.5504 8.28715 47.472 7.88395H47.4568C47.384 8.29835 47.2832 8.70395 47.1536 9.10235L46.6344 10.7399H45.8576L44.748 6.96875H45.6096L46.036 8.76155C46.1392 9.18555 46.224 9.58955 46.292 9.97195H46.3072C46.3696 9.65675 46.4728 9.25515 46.6184 8.76955L47.1536 6.96955H47.8368L48.3496 8.73115C48.4736 9.16075 48.5744 9.57435 48.652 9.97275H48.6752C48.732 9.58475 48.8176 9.17115 48.9312 8.73115L49.3888 6.96955H50.212V6.96875Z" fill="white"/>
<path d="M54.5595 10.741H53.7211V8.58103C53.7211 7.91542 53.4683 7.58262 52.9611 7.58262C52.7123 7.58262 52.5115 7.67383 52.3555 7.85703C52.2011 8.04023 52.1227 8.25622 52.1227 8.50342V10.7402H51.2843V8.04743C51.2843 7.71623 51.2739 7.35703 51.2539 6.96823H51.9907L52.0299 7.55783H52.0531C52.1507 7.37463 52.2963 7.22343 52.4875 7.10263C52.7147 6.96183 52.9691 6.89062 53.2475 6.89062C53.5995 6.89062 53.8923 7.00423 54.1251 7.23223C54.4147 7.51143 54.5595 7.92823 54.5595 8.48183V10.741Z" fill="white"/>
<path d="M56.8708 10.7438H56.0332V5.24219H56.8708V10.7438Z" fill="white"/>
<path d="M61.8069 8.82964C61.8069 9.40964 61.6413 9.88484 61.3101 10.2576C60.9629 10.6408 60.5021 10.832 59.9285 10.832C59.3741 10.832 58.9333 10.6488 58.6053 10.2808C58.2773 9.91364 58.1133 9.45044 58.1133 8.89204C58.1133 8.30804 58.2821 7.82884 58.6213 7.45684C58.9605 7.08484 59.4165 6.89844 59.9901 6.89844C60.5445 6.89844 60.9885 7.08164 61.3261 7.44884C61.6461 7.80564 61.8069 8.26644 61.8069 8.82964ZM60.9365 8.85684C60.9365 8.50884 60.8613 8.21044 60.7117 7.96164C60.5365 7.66084 60.2853 7.51044 59.9605 7.51044C59.6229 7.51044 59.3669 7.66084 59.1917 7.96164C59.0413 8.21044 58.9669 8.51364 58.9669 8.87204C58.9669 9.22004 59.0421 9.51844 59.1917 9.76724C59.3733 10.068 59.6261 10.2184 59.9525 10.2184C60.2725 10.2184 60.5229 10.0656 60.7037 9.75924C60.8597 9.50564 60.9365 9.20484 60.9365 8.85684Z" fill="white"/>
<path d="M65.8655 10.7464H65.1127L65.0503 10.312H65.0271C64.7695 10.6584 64.4023 10.832 63.9255 10.832C63.5695 10.832 63.2815 10.7176 63.0647 10.4904C62.8679 10.284 62.7695 10.0272 62.7695 9.72244C62.7695 9.26164 62.9615 8.91044 63.3479 8.66724C63.7335 8.42404 64.2759 8.30484 64.9743 8.31044V8.24004C64.9743 7.74324 64.7135 7.49524 64.1911 7.49524C63.8191 7.49524 63.4911 7.58884 63.2079 7.77444L63.0375 7.22404C63.3879 7.00724 63.8207 6.89844 64.3311 6.89844C65.3167 6.89844 65.8111 7.41844 65.8111 8.45844V9.84724C65.8111 10.224 65.8295 10.524 65.8655 10.7464ZM64.9951 9.45044V8.86884C64.0703 8.85284 63.6079 9.10644 63.6079 9.62884C63.6079 9.82564 63.6607 9.97284 63.7687 10.0712C63.8767 10.1696 64.0143 10.2184 64.1783 10.2184C64.3623 10.2184 64.5343 10.16 64.6911 10.044C64.8487 9.92724 64.9455 9.77924 64.9815 9.59764C64.9903 9.55684 64.9951 9.50724 64.9951 9.45044Z" fill="white"/>
<path d="M70.6293 10.7438H69.8853L69.8461 10.1382H69.8229C69.5853 10.599 69.1805 10.8294 68.6117 10.8294C68.1573 10.8294 67.7789 10.651 67.4789 10.2942C67.1789 9.93739 67.0293 9.47419 67.0293 8.90539C67.0293 8.29499 67.1917 7.80059 67.5181 7.42299C67.8341 7.07099 68.2213 6.89499 68.6821 6.89499C69.1885 6.89499 69.5429 7.06539 69.7445 7.40699H69.7605V5.24219H70.5997V9.72779C70.5997 10.095 70.6093 10.4334 70.6293 10.7438ZM69.7605 9.15339V8.52459C69.7605 8.41579 69.7525 8.32779 69.7373 8.26059C69.6901 8.05899 69.5885 7.88939 69.4341 7.75259C69.2781 7.61579 69.0901 7.54699 68.8733 7.54699C68.5605 7.54699 68.3157 7.67099 68.1357 7.91979C67.9573 8.16859 67.8669 8.48619 67.8669 8.87419C67.8669 9.24699 67.9525 9.54939 68.1245 9.78219C68.3061 10.0302 68.5509 10.1542 68.8573 10.1542C69.1325 10.1542 69.3525 10.051 69.5197 9.84379C69.6813 9.65259 69.7605 9.42219 69.7605 9.15339Z" fill="white"/>
<path d="M77.7991 8.82964C77.7991 9.40964 77.6335 9.88484 77.3023 10.2576C76.9551 10.6408 76.4959 10.832 75.9207 10.832C75.3679 10.832 74.9271 10.6488 74.5975 10.2808C74.2695 9.91364 74.1055 9.45044 74.1055 8.89204C74.1055 8.30804 74.2743 7.82884 74.6135 7.45684C74.9527 7.08484 75.4087 6.89844 75.9839 6.89844C76.5367 6.89844 76.9823 7.08164 77.3183 7.44884C77.6383 7.80564 77.7991 8.26644 77.7991 8.82964ZM76.9303 8.85684C76.9303 8.50884 76.8551 8.21044 76.7055 7.96164C76.5287 7.66084 76.2791 7.51044 75.9527 7.51044C75.6167 7.51044 75.3607 7.66084 75.1839 7.96164C75.0335 8.21044 74.9591 8.51364 74.9591 8.87204C74.9591 9.22004 75.0343 9.51844 75.1839 9.76724C75.3655 10.068 75.6183 10.2184 75.9447 10.2184C76.2647 10.2184 76.5167 10.0656 76.6975 9.75924C76.8519 9.50564 76.9303 9.20484 76.9303 8.85684Z" fill="white"/>
<path d="M82.3068 10.741H81.4692V8.58103C81.4692 7.91542 81.2164 7.58262 80.7084 7.58262C80.4596 7.58262 80.2588 7.67383 80.1036 7.85703C79.9484 8.04023 79.8708 8.25622 79.8708 8.50342V10.7402H79.0316V8.04743C79.0316 7.71623 79.022 7.35703 79.002 6.96823H79.738L79.7772 7.55783H79.8004C79.8988 7.37463 80.0444 7.22343 80.2348 7.10263C80.4628 6.96183 80.7164 6.89062 80.9956 6.89062C81.3468 6.89062 81.6396 7.00423 81.8724 7.23223C82.1628 7.51143 82.3068 7.92823 82.3068 8.48183V10.741Z" fill="white"/>
<path d="M87.9491 7.59845H87.0259V9.43045C87.0259 9.89605 87.1899 10.1288 87.5147 10.1288C87.6651 10.1288 87.7899 10.1161 87.8883 10.0897L87.9099 10.7257C87.7443 10.7881 87.5267 10.8192 87.2587 10.8192C86.9275 10.8192 86.6699 10.7185 86.4835 10.5169C86.2963 10.3153 86.2035 9.97605 86.2035 9.50005V7.59845H85.6523V6.97045H86.2035V6.27925L87.0251 6.03125V6.96965H87.9483V7.59845H87.9491Z" fill="white"/>
<path d="M92.3885 10.7438H91.5493V8.59979C91.5493 7.92379 91.2965 7.58539 90.7901 7.58539C90.4013 7.58539 90.1357 7.78139 89.9901 8.17339C89.9653 8.25579 89.9509 8.35659 89.9509 8.47499V10.743H89.1133V5.24219H89.9509V7.51499H89.9669C90.2309 7.10139 90.6093 6.89499 91.0997 6.89499C91.4469 6.89499 91.7341 7.00859 91.9621 7.23659C92.2461 7.52059 92.3885 7.94299 92.3885 8.50139V10.7438Z" fill="white"/>
<path d="M96.9661 8.68182C96.9661 8.83222 96.9549 8.95862 96.9349 9.06182H94.4205C94.4317 9.43462 94.5517 9.71862 94.7845 9.91542C94.9973 10.0914 95.2717 10.1794 95.6077 10.1794C95.9797 10.1794 96.3189 10.1202 96.6245 10.001L96.7557 10.5834C96.3981 10.7386 95.9773 10.8162 95.4901 10.8162C94.9061 10.8162 94.4461 10.6442 94.1133 10.3002C93.7789 9.95622 93.6133 9.49462 93.6133 8.91543C93.6133 8.34662 93.7677 7.87302 94.0789 7.49542C94.4037 7.09222 94.8429 6.89062 95.3973 6.89062C95.9397 6.89062 96.3517 7.09222 96.6301 7.49542C96.8549 7.81542 96.9661 8.21142 96.9661 8.68182ZM96.1661 8.46502C96.1725 8.21622 96.1173 8.00182 96.0037 7.82103C95.8581 7.58823 95.6365 7.47142 95.3365 7.47142C95.0629 7.47142 94.8397 7.58502 94.6693 7.81302C94.5301 7.99462 94.4477 8.21142 94.4205 8.46502H96.1661Z" fill="white"/>
</svg>
