<svg xmlns="http://www.w3.org/2000/svg" xmlns:xlink="http://www.w3.org/1999/xlink" width="108" height="32" viewBox="0 0 108 32">
  <defs>
    <linearGradient id="linear-gradient" x1="0.915" y1="6.614" x2="-0.383" y2="5.945" gradientUnits="objectBoundingBox">
      <stop offset="0" stop-color="#00a0ff"/>
      <stop offset="0.007" stop-color="#00a1ff"/>
      <stop offset="0.26" stop-color="#00beff"/>
      <stop offset="0.512" stop-color="#00d2ff"/>
      <stop offset="0.76" stop-color="#00dfff"/>
      <stop offset="1" stop-color="#00e3ff"/>
    </linearGradient>
    <linearGradient id="linear-gradient-2" x1="1.076" y1="17.098" x2="-1.305" y2="17.098" gradientUnits="objectBoundingBox">
      <stop offset="0" stop-color="#ffe000"/>
      <stop offset="0.409" stop-color="#ffbd00"/>
      <stop offset="0.775" stop-color="orange"/>
      <stop offset="1" stop-color="#ff9c00"/>
    </linearGradient>
    <linearGradient id="linear-gradient-3" x1="0.862" y1="10.863" x2="-0.501" y2="9.093" gradientUnits="objectBoundingBox">
      <stop offset="0" stop-color="#ff3a44"/>
      <stop offset="1" stop-color="#c31162"/>
    </linearGradient>
    <linearGradient id="linear-gradient-4" x1="-0.188" y1="13.583" x2="0.421" y2="12.793" gradientUnits="objectBoundingBox">
      <stop offset="0" stop-color="#32a071"/>
      <stop offset="0.068" stop-color="#2da771"/>
      <stop offset="0.476" stop-color="#15cf74"/>
      <stop offset="0.801" stop-color="#06e775"/>
      <stop offset="1" stop-color="#00f076"/>
    </linearGradient>
  </defs>
  <g id="Google_Play" data-name="Google Play" transform="translate(-10 -10)">
    <rect id="Rectangle_1" data-name="Rectangle 1" width="108" height="32" transform="translate(10 10)" fill="rgba(255,255,255,0)"/>
    <rect id="Rectangle_2" data-name="Rectangle 2" width="108" height="32" rx="5" transform="translate(10 10)"/>
    <g id="Group_2" data-name="Group 2" transform="translate(10 10)">
      <g id="Group_1" data-name="Group 1">
        <path id="Path_1" data-name="Path 1" d="M113.832,10.639a3.358,3.358,0,0,1,3.355,3.355V37.955a3.358,3.358,0,0,1-3.355,3.355H13.994a3.358,3.358,0,0,1-3.355-3.355V13.994a3.358,3.358,0,0,1,3.355-3.355h99.839m0-.639H13.994A4.005,4.005,0,0,0,10,13.994V37.955a4.005,4.005,0,0,0,3.994,3.994h99.839a4.005,4.005,0,0,0,3.994-3.994V13.994A4.005,4.005,0,0,0,113.832,10Z" transform="translate(-10 -10)" fill="#a6a6a6"/>
      </g>
    </g>
    <g id="Group_3" data-name="Group 3" transform="translate(43.028 15.484)">
      <path id="Path_2" data-name="Path 2" d="M56.2,19.563a2.163,2.163,0,0,1-.6,1.6,2.323,2.323,0,0,1-1.76.709,2.5,2.5,0,1,1,0-5.006,2.481,2.481,0,0,1,.984.2,1.971,1.971,0,0,1,.749.536l-.421.421a1.621,1.621,0,0,0-1.312-.568,1.914,1.914,0,1,0,1.339,3.293,1.511,1.511,0,0,0,.4-.971h-1.74V19.2h2.323A2.042,2.042,0,0,1,56.2,19.563Z" transform="translate(-51.352 -16.866)" fill="#fff" stroke="#fff" stroke-miterlimit="10" stroke-width="0.2"/>
      <path id="Path_3" data-name="Path 3" d="M61.323,17.589H59.14v1.52h1.968v.575H59.14V21.2h2.183v.589h-2.8V17h2.8Z" transform="translate(-52.796 -16.893)" fill="#fff" stroke="#fff" stroke-miterlimit="10" stroke-width="0.2"/>
      <path id="Path_4" data-name="Path 4" d="M64.786,21.792H64.17v-4.2H62.832V17h3.293v.589H64.786Z" transform="translate(-53.663 -16.893)" fill="#fff" stroke="#fff" stroke-miterlimit="10" stroke-width="0.2"/>
      <path id="Path_5" data-name="Path 5" d="M69.938,21.792V17h.615v4.792Z" transform="translate(-55.093 -16.893)" fill="#fff" stroke="#fff" stroke-miterlimit="10" stroke-width="0.2"/>
      <path id="Path_6" data-name="Path 6" d="M73.635,21.792H73.02v-4.2H71.681V17h3.293v.589H73.635Z" transform="translate(-55.444 -16.893)" fill="#fff" stroke="#fff" stroke-miterlimit="10" stroke-width="0.2"/>
      <path id="Path_7" data-name="Path 7" d="M82.546,21.146a2.488,2.488,0,0,1-3.514,0,2.59,2.59,0,0,1,0-3.554,2.481,2.481,0,0,1,3.51,0,2.581,2.581,0,0,1,0,3.551Zm-3.059-.4a1.843,1.843,0,0,0,2.6,0,2.042,2.042,0,0,0,0-2.751,1.843,1.843,0,0,0-2.6,0,2.044,2.044,0,0,0,0,2.751Z" transform="translate(-56.782 -16.866)" fill="#fff" stroke="#fff" stroke-miterlimit="10" stroke-width="0.2"/>
      <path id="Path_8" data-name="Path 8" d="M85.575,21.792V17h.75l2.329,3.728h.026l-.026-.923V17h.616v4.792h-.642l-2.437-3.909h-.026l.026.924v2.985Z" transform="translate(-58.241 -16.893)" fill="#fff" stroke="#fff" stroke-miterlimit="10" stroke-width="0.2"/>
    </g>
    <path id="Path_9" data-name="Path 9" d="M72.682,30.8a3.4,3.4,0,1,0,3.41,3.4A3.348,3.348,0,0,0,72.682,30.8Zm0,5.455A2.064,2.064,0,1,1,74.6,34.2,1.965,1.965,0,0,1,72.682,36.26ZM65.244,30.8a3.4,3.4,0,1,0,3.41,3.4A3.348,3.348,0,0,0,65.244,30.8Zm0,5.455A2.064,2.064,0,1,1,67.161,34.2,1.965,1.965,0,0,1,65.244,36.26Zm-8.849-4.413v1.441h3.448a3.007,3.007,0,0,1-.784,1.814,3.531,3.531,0,0,1-2.664,1.055,3.835,3.835,0,0,1,0-7.668,3.674,3.674,0,0,1,2.6,1.03L60.011,28.5a5.028,5.028,0,0,0-3.616-1.454,5.276,5.276,0,1,0,0,10.552,4.821,4.821,0,0,0,3.68-1.48,4.762,4.762,0,0,0,1.248-3.371,4.656,4.656,0,0,0-.077-.9Zm36.188,1.119A3.157,3.157,0,0,0,89.675,30.8a3.228,3.228,0,0,0-3.2,3.4,3.324,3.324,0,0,0,3.371,3.4,3.378,3.378,0,0,0,2.831-1.506l-1.158-.772a1.941,1.941,0,0,1-1.672.939,1.729,1.729,0,0,1-1.648-1.029l4.542-1.879ZM87.95,34.1a1.864,1.864,0,0,1,1.776-1.982,1.314,1.314,0,0,1,1.261.72Zm-3.692,3.294H85.75V27.407H84.258Zm-2.446-5.829h-.051a2.354,2.354,0,0,0-1.788-.759,3.4,3.4,0,0,0,0,6.794,2.314,2.314,0,0,0,1.788-.772h.051v.49c0,1.3-.694,1.994-1.814,1.994a1.88,1.88,0,0,1-1.712-1.21l-1.3.541A3.237,3.237,0,0,0,80,40.648c1.75,0,3.23-1.03,3.23-3.538v-6.1H81.812ZM80.1,36.26a2.066,2.066,0,0,1,0-4.117,2.075,2.075,0,0,1,0,4.117Zm19.473-8.852H96v9.985h1.49V33.61h2.081a3.106,3.106,0,1,0,0-6.2Zm.038,4.812h-2.12V28.8h2.12a1.712,1.712,0,1,1,0,3.422Zm9.211-1.434a2.8,2.8,0,0,0-2.66,1.528l1.323.553a1.412,1.412,0,0,1,1.362-.732,1.435,1.435,0,0,1,1.567,1.285v.1a3.3,3.3,0,0,0-1.554-.385c-1.426,0-2.878.784-2.878,2.248a2.307,2.307,0,0,0,2.479,2.2,2.1,2.1,0,0,0,1.9-.977h.051v.771h1.438V33.548A2.738,2.738,0,0,0,108.824,30.787Zm-.18,5.472c-.489,0-1.169-.244-1.169-.847,0-.771.847-1.066,1.58-1.066a2.659,2.659,0,0,1,1.362.334A1.807,1.807,0,0,1,108.644,36.259ZM117.1,31l-1.708,4.329h-.051L113.563,31h-1.605l2.659,6.05L113.1,40.421h1.554l4.1-9.416Zm-13.424,6.388h1.49V27.408h-1.49Z" transform="translate(-8.261 -3.431)" fill="#fff"/>
    <g id="Group_5" data-name="Group 5" transform="translate(17.966 15.703)">
      <path id="Path_10" data-name="Path 10" d="M20.342,17.523a1.6,1.6,0,0,0-.369,1.122V36.31a1.6,1.6,0,0,0,.369,1.122l.059.058,9.9-9.9v-.233l-9.9-9.9Z" transform="translate(-19.973 -17.206)" fill="url(#linear-gradient)"/>
      <path id="Path_11" data-name="Path 11" d="M36.2,32.557l-3.3-3.3v-.233l3.3-3.3.074.043,3.908,2.22a1.213,1.213,0,0,1,0,2.306l-3.908,2.22Z" transform="translate(-22.575 -18.868)" fill="url(#linear-gradient-2)"/>
      <path id="Path_12" data-name="Path 12" d="M33.763,33.375,30.389,30l-9.954,9.954A1.3,1.3,0,0,0,22.1,40l11.668-6.629" transform="translate(-20.066 -19.729)" fill="url(#linear-gradient-3)"/>
      <path id="Path_13" data-name="Path 13" d="M33.763,24.039,22.1,17.409a1.3,1.3,0,0,0-1.661.049l9.954,9.954Z" transform="translate(-20.066 -17.14)" fill="url(#linear-gradient-4)"/>
      <g id="Group_4" data-name="Group 4" transform="translate(0 13.571)">
        <path id="Path_14" data-name="Path 14" d="M33.689,34.132,22.1,40.719a1.33,1.33,0,0,1-1.6.009h0l-.06.059h0l.059.058h0a1.33,1.33,0,0,0,1.6-.009l11.668-6.629Z" transform="translate(-20.066 -34.132)" opacity="0.2" style="isolation: isolate"/>
        <path id="Path_15" data-name="Path 15" d="M20.342,42.035a1.6,1.6,0,0,1-.369-1.122v.117a1.6,1.6,0,0,0,.369,1.121l.06-.059Z" transform="translate(-19.973 -35.497)" opacity="0.12" style="isolation: isolate"/>
      </g>
      <path id="Path_16" data-name="Path 16" d="M41.011,31.038,37.029,33.3l.074.074,3.908-2.22A1.4,1.4,0,0,0,41.848,30h0A1.486,1.486,0,0,1,41.011,31.038Z" transform="translate(-23.406 -19.729)" opacity="0.12" style="isolation: isolate"/>
      <path id="Path_17" data-name="Path 17" d="M22,17.526l15.576,8.85a1.486,1.486,0,0,1,.837,1.037h0a1.4,1.4,0,0,0-.837-1.153L22,17.409c-1.117-.634-2.03-.107-2.03,1.171V18.7C19.973,17.419,20.886,16.892,22,17.526Z" transform="translate(-19.973 -17.14)" fill="#fff" opacity="0.25" style="isolation: isolate"/>
    </g>
  </g>
</svg>
