<svg width="34" height="24" viewBox="0 0 34 24" fill="none" xmlns="http://www.w3.org/2000/svg">
<path d="M8.61328 24C7.23694 24 6.03264 23.7419 5.00038 23.2258C3.96812 22.6523 3.13658 21.9068 2.50575 20.9893C1.93228 20.0717 1.4735 18.9821 1.12941 17.7204C0.785324 16.4588 0.613281 15.1398 0.613281 13.7634C0.613281 10.9534 1.33013 8.31541 2.76382 5.84946C4.25486 3.38352 6.54876 1.43369 9.64554 0L10.4197 1.54839C8.814 2.29391 7.38031 3.38352 6.11866 4.81721C4.91436 6.19355 4.19751 7.65592 3.96812 9.20431C3.62403 10.4086 3.59536 11.5842 3.8821 12.7312C5.14375 11.3548 6.8355 10.6667 8.95737 10.6667C10.9072 10.6667 12.5129 11.2688 13.7746 12.4731C15.0362 13.6201 15.667 15.2258 15.667 17.2903C15.667 19.2975 15.0075 20.9319 13.6885 22.1936C12.3696 23.3979 10.6778 24 8.61328 24ZM26.3337 24C24.9574 24 23.7531 23.7419 22.7208 23.2258C21.6885 22.6523 20.857 21.9068 20.2262 20.9893C19.6527 20.0717 19.1939 18.9821 18.8498 17.7204C18.5058 16.4588 18.3337 15.1398 18.3337 13.7634C18.3337 10.9534 19.0506 8.31541 20.4842 5.84946C21.9753 3.38352 24.2692 1.43369 27.366 0L28.1402 1.54839C26.5344 2.29391 25.1007 3.38352 23.8391 4.81721C22.6348 6.19355 21.9179 7.65592 21.6885 9.20431C21.3445 10.4086 21.3158 11.5842 21.6025 12.7312C22.8642 11.3548 24.5559 10.6667 26.6778 10.6667C28.6276 10.6667 30.2334 11.2688 31.495 12.4731C32.7566 13.6201 33.3875 15.2258 33.3875 17.2903C33.3875 19.2975 32.728 20.9319 31.409 22.1936C30.09 23.3979 28.3982 24 26.3337 24Z" fill="#0A0727"/>
</svg>
