<svg width="64" height="64" viewBox="0 0 64 64" fill="none" xmlns="http://www.w3.org/2000/svg">
<g clip-path="url(#clip0_398_915)">
<rect width="64" height="64" rx="32" fill="#241A8E"/>
<g clip-path="url(#clip1_398_915)">
<path d="M49.7626 13.4574C49.6364 13.4392 49.5088 13.4188 49.3796 13.3954C49.2384 12.96 49.1017 12.542 48.9688 12.1406C49.153 12.2396 49.3381 12.3319 49.5194 12.4158C49.61 12.7604 49.6908 13.1082 49.7626 13.4574V13.4574Z" fill="#D8AA28"/>
<path d="M39.5816 12.6726C39.3935 13.9077 37.5045 14.644 35.3617 14.3167C33.2197 13.9894 31.635 12.7225 31.8239 11.4874C32.0119 10.2523 33.9017 9.51607 36.0437 9.84336C38.1865 10.1707 39.7704 11.4375 39.5816 12.6726Z" fill="#FFC8BF"/>
<path d="M32.8363 42.6123C34.419 42.6123 35.7019 41.5169 35.7019 40.1655C35.7019 38.8142 34.419 37.7188 32.8363 37.7188C31.2537 37.7188 29.9707 38.8142 29.9707 40.1655C29.9707 41.5169 31.2537 42.6123 32.8363 42.6123Z" fill="#EBC140"/>
<path d="M48.9983 23.2407C50.1298 22.8484 51.4667 23.7434 51.9848 25.24C52.5029 26.7366 52.006 28.2673 50.8753 28.6596C49.7438 29.0519 48.4069 28.1569 47.8888 26.6603C47.3707 25.1637 47.8676 23.633 48.9983 23.2407Z" fill="#EBC140"/>
<path d="M57.2868 35.1717C57.2408 33.7363 56.4598 31.2358 54.8986 26.2931C54.5255 25.1124 54.1795 24.0164 53.8555 23.0005C54.2218 26.8245 53.5164 30.8201 51.8064 34.5435C51.8116 34.3803 51.8177 34.1966 51.8252 33.9895C51.8524 33.2434 51.8849 32.5949 51.9129 32.0491C51.9831 30.6825 52.0277 29.9568 51.9098 29.9342C51.6462 29.8828 51.5677 33.5488 49.4362 34.5866C49.15 34.7265 48.3357 34.8928 46.7065 35.2269C45.1204 35.5519 44.8946 35.53 44.5743 35.8248C43.9935 36.3577 44.168 36.9488 43.6355 38.8128C43.3379 39.8559 43.1891 40.3767 42.9957 40.648C42.0712 41.9451 40.538 41.5989 37.8778 43.209C37.1995 43.6194 36.945 43.856 36.982 44.0631C37.0296 44.3322 37.5666 44.5219 39.9247 44.7034C40.9708 44.7835 41.7231 44.8122 42.3311 44.8266C42.6581 44.8341 42.9429 44.8379 43.2102 44.8432C33.3898 51.8359 20.4424 51.0157 13.5079 42.6632C6.19054 33.8489 8.33938 19.9845 18.3086 11.6962C23.2544 7.58424 29.1956 5.61668 34.8203 5.75501H34.8211C35.4374 5.77013 36.05 5.81019 36.6572 5.87671C41.677 6.41867 46.3183 8.68632 49.6077 12.6479C50.0216 13.1468 50.406 13.6615 50.7595 14.1914C50.3675 13.3199 49.9936 12.6426 49.6099 12.1218C49.2565 11.6426 43.7805 4.43524 34.9374 3.41404C32.9343 3.18274 33.349 3.56824 29.3074 3.58487C21.0489 3.61889 19.3185 2.01339 12.0759 2.04741C7.08633 2.07235 4.45561 2.12224 1.83924 3.92653C-2.04151 6.60311 -3.15936 11.2556 -3.45015 12.8051C-4.50003 18.4055 -3.5491 23.5107 -2.42596 28.6839C-1.95088 30.873 -1.00524 36.5912 -1.06113 37.9034C-1.35192 44.6792 3.77508 51.0195 9.0048 54.2947C12.625 56.5624 16.3093 57.1157 23.6773 58.2215C29 59.0213 31.6617 59.4204 35.1081 58.9049C43.7813 57.6063 49.2391 52.1322 50.1213 51.2213C51.4959 49.804 57.5557 43.5514 57.2868 35.1717Z" fill="#F16C56"/>
<path d="M32.8363 42.6123C34.419 42.6123 35.7019 41.5169 35.7019 40.1655C35.7019 38.8142 34.419 37.7188 32.8363 37.7188C31.2537 37.7188 29.9707 38.8142 29.9707 40.1655C29.9707 41.5169 31.2537 42.6123 32.8363 42.6123Z" fill="#D8AA28"/>
<path d="M51.9848 25.24C52.5029 26.7366 52.006 28.2673 50.8753 28.6596C49.7438 29.0519 48.4069 28.1569 47.8888 26.6603C47.3707 25.1637 47.8676 23.633 48.9983 23.2407C50.1298 22.8484 51.4667 23.7434 51.9848 25.24Z" fill="#D8AA28"/>
<path d="M53.5368 20.8773C53.465 20.5281 53.3842 20.1804 53.2935 19.8357C52.7686 17.8462 51.928 15.9429 50.7603 14.1953C51.3486 15.5037 51.9786 17.2491 52.7429 19.5606C52.8759 19.9619 53.0126 20.3799 53.1538 20.8153C53.3759 21.4994 53.6093 22.2281 53.8555 23.0021C53.7875 22.287 53.681 21.5773 53.5368 20.8773ZM51.9098 29.9373C51.6462 29.8859 51.5677 33.5519 49.4362 34.5898C49.15 34.7296 48.3357 34.8959 46.7065 35.23C45.1204 35.555 44.8946 35.5331 44.5743 35.8279C43.9935 36.3608 44.168 36.9519 43.6355 38.8159C43.3379 39.859 43.1891 40.3798 42.9957 40.6512C42.0712 41.9483 40.538 41.6021 37.8778 43.2121C37.1995 43.6226 36.945 43.8592 36.982 44.0663C37.0296 44.3354 37.5666 44.5251 39.9247 44.7065C40.9708 44.7866 41.723 44.8153 42.3311 44.8297C42.6581 44.8373 42.9429 44.841 43.2102 44.8463H43.211C43.7533 44.4616 44.2858 44.0519 44.807 43.618C47.9188 41.0306 50.2693 37.899 51.8064 34.5474C51.8116 34.3834 51.8177 34.1997 51.8252 33.9926C51.8524 33.2466 51.8849 32.598 51.9129 32.0523C51.9831 30.6856 52.0277 29.96 51.9098 29.9373Z" fill="#6A3DCA"/>
<path d="M51.9134 32.0502C53.0886 28.2307 53.1868 24.2457 52.1324 20.5925H52.1316C51.9541 19.9765 51.7434 19.3702 51.4994 18.7754C50.8393 17.1631 49.9345 15.6377 48.7796 14.2461C46.7531 11.8054 44.1813 10.0487 41.321 8.98367C40.4259 8.65033 39.5022 8.38426 38.5581 8.18773H38.5573C32.2747 6.87098 25.0925 8.56869 19.3416 13.3504C9.96605 21.1466 7.9441 34.1863 14.8264 42.4761C21.248 50.211 33.1501 51.078 42.3316 44.8284C42.6586 44.8359 42.9434 44.8397 43.2107 44.845C33.3903 51.8377 20.4429 51.0175 13.5084 42.665C6.19104 33.8507 8.33988 19.9863 18.3091 11.698C23.2549 7.58605 29.1961 5.61849 34.8208 5.75681H34.8216C35.4379 5.77193 36.0505 5.81199 36.6577 5.87851C41.6775 6.42048 46.3188 8.68812 49.6082 12.6497C50.0221 13.1486 50.4065 13.6633 50.76 14.1932C50.76 14.1932 50.76 14.194 50.7608 14.194C51.3491 15.5024 51.9791 17.2477 52.7434 19.5592C52.8764 19.9606 53.0131 20.3786 53.1543 20.814C53.3764 21.4981 53.6098 22.2267 53.856 23.0008V23.0023C54.2223 26.8263 53.5169 30.8219 51.8069 34.5453C51.8121 34.3821 51.8182 34.1984 51.8257 33.9913C51.8529 33.2452 51.8854 32.5967 51.9134 32.0509V32.0502Z" fill="#EC3A1D"/>
<path d="M32.8363 42.6123C34.419 42.6123 35.7019 41.5169 35.7019 40.1655C35.7019 38.8142 34.419 37.7188 32.8363 37.7188C31.2537 37.7188 29.9707 38.8142 29.9707 40.1655C29.9707 41.5169 31.2537 42.6123 32.8363 42.6123Z" fill="#EBC140"/>
<path d="M51.9129 32.0444C50.6235 36.2343 48.0404 40.2253 44.2639 43.366C43.6355 43.8883 42.9904 44.3736 42.3311 44.8226C41.723 44.8083 40.9708 44.7795 39.9247 44.6994C37.5666 44.518 37.0296 44.3283 36.982 44.0592C36.945 43.8521 37.1995 43.6155 37.8778 43.205C40.538 41.595 42.0712 41.9412 42.9957 40.6441C43.1891 40.3727 43.3379 39.8519 43.6355 38.8088C44.168 36.9448 43.9935 36.3537 44.5743 35.8208C44.8946 35.526 45.1204 35.5479 46.7065 35.2229C48.3357 34.8888 49.15 34.7225 49.4362 34.5827C51.5677 33.5449 51.6462 29.8788 51.9098 29.9302C52.0277 29.9529 51.9831 30.6785 51.9129 32.0444V32.0444Z" fill="#EBC140"/>
<path d="M47.8888 26.6603C47.3707 25.1637 47.8676 23.633 48.9983 23.2407C50.1298 22.8484 51.4667 23.7434 51.9848 25.24C52.5029 26.7366 52.006 28.2673 50.8753 28.6596C49.7438 29.0519 48.4069 28.1569 47.8888 26.6603Z" fill="#EBC140"/>
<path d="M0.171875 35.8672C2.66438 39.8409 5.30945 42.1652 7.25209 43.5507C9.71589 45.3074 13.5566 47.3392 13.8202 47.4775C14.8995 48.046 18.5008 49.9054 20.4616 51.9932C21.3627 52.9524 22.01 54.0507 22.01 54.0507C22.7041 55.2291 22.9314 56.1059 22.9481 56.0999C22.9843 56.087 22.5583 51.9486 19.7063 48.9288C18.3196 47.4602 16.8173 46.7413 14.0763 45.4283C11.3051 44.1018 10.2929 44.0216 8.10483 42.6966C6.35101 41.6338 5.07455 40.503 4.26638 39.7086L0.171875 35.8672V35.8672Z" fill="#EC3A1D"/>
<path d="M32.8363 42.6123C34.419 42.6123 35.7019 41.5169 35.7019 40.1655C35.7019 38.8142 34.419 37.7188 32.8363 37.7188C31.2537 37.7188 29.9707 38.8142 29.9707 40.1655C29.9707 41.5169 31.2537 42.6123 32.8363 42.6123Z" fill="#3A3A3A"/>
<path d="M50.8753 28.6596C49.7438 29.0519 48.4069 28.1569 47.8888 26.6603C47.3707 25.1637 47.8676 23.633 48.9983 23.2407C50.1298 22.8484 51.4667 23.7434 51.9848 25.24C52.5029 26.7366 52.006 28.2673 50.8753 28.6596Z" fill="#3A3A3A"/>
<path d="M31.9769 39.806C32.2359 39.806 32.4459 39.5958 32.4459 39.3366C32.4459 39.0773 32.2359 38.8672 31.9769 38.8672C31.7178 38.8672 31.5078 39.0773 31.5078 39.3366C31.5078 39.5958 31.7178 39.806 31.9769 39.806Z" fill="white"/>
<path d="M49.3323 25.3685C49.5914 25.3685 49.8014 25.1583 49.8014 24.8991C49.8014 24.6398 49.5914 24.4297 49.3323 24.4297C49.0733 24.4297 48.8633 24.6398 48.8633 24.8991C48.8633 25.1583 49.0733 25.3685 49.3323 25.3685Z" fill="white"/>
<path d="M48.3697 45.766C47.4233 45.8113 47.3229 45.3321 45.171 44.998C44.4006 44.8778 43.8583 44.8536 43.211 44.8392H43.2102C42.9429 44.834 42.6581 44.8302 42.3311 44.8226C41.723 44.8083 40.9708 44.7795 39.9247 44.6994C37.5666 44.518 37.0296 44.3283 36.982 44.0592C36.945 43.8521 37.1995 43.6155 37.8778 43.205C40.538 41.595 42.0712 41.9412 42.9957 40.6441C43.1891 40.3727 43.3379 39.8519 43.6355 38.8088C44.168 36.9448 43.9935 36.3537 44.5743 35.8208C44.8946 35.526 45.1204 35.5479 46.7065 35.2229C48.3357 34.8888 49.15 34.7225 49.4362 34.5827C51.5677 33.5449 51.6462 29.8788 51.9098 29.9302C52.0277 29.9529 51.9831 30.6785 51.9129 32.0444C51.8849 32.5909 51.8524 33.2395 51.8252 33.9855C51.8177 34.1926 51.8116 34.3763 51.8064 34.5396C51.7739 35.6386 51.8003 35.8148 51.8252 35.9486C52.187 37.9161 53.5738 38.2215 53.9152 39.5345C54.5209 41.8656 51.3721 45.6223 48.3697 45.766V45.766Z" fill="#F68626"/>
<path d="M52.1321 20.5933H52.1314C51.9539 19.9772 51.7432 19.371 51.4992 18.7761C50.8391 17.1638 49.9342 15.6384 48.7794 14.2469C46.7529 11.8061 44.1811 10.0494 41.3207 8.98441C40.4257 8.65107 39.502 8.385 38.5578 8.18847H38.5571C32.2744 6.87172 25.0923 8.56943 19.3414 13.3511C9.9658 21.1473 7.94384 34.187 14.8262 42.4768C21.2478 50.2117 33.1498 51.0787 42.3313 44.8291C41.7233 44.8147 40.971 44.786 39.9249 44.7059C37.5669 44.5245 37.0298 44.3348 36.9823 44.0657C36.9452 43.8585 37.1998 43.622 37.878 43.2115C40.5382 41.6015 42.0715 41.9477 42.996 40.6506C43.1893 40.3792 43.3381 39.8584 43.6357 38.8153C44.1682 36.9513 43.9937 36.3602 44.5746 35.8273C44.8948 35.5325 45.1207 35.5544 46.7068 35.2294C48.336 34.8953 49.1502 34.729 49.4365 34.5892C51.5679 33.5513 51.6465 29.8853 51.9101 29.9367C52.0279 29.9594 51.9833 30.685 51.9131 32.0509C53.0884 28.2314 53.1865 24.2464 52.1321 20.5933V20.5933ZM32.8372 42.6144C31.2548 42.6144 29.9715 41.5183 29.9715 40.1676C29.9715 38.8168 31.2548 37.7208 32.8372 37.7208C34.4195 37.7208 35.7028 38.8161 35.7028 40.1676C35.7028 41.5191 34.4195 42.6144 32.8372 42.6144V42.6144ZM39.5813 12.6777C39.3932 13.9128 37.5042 14.649 35.3614 14.3217C33.2193 13.9944 31.6347 12.7275 31.8235 11.4924C32.0116 10.2573 33.9014 9.52109 36.0434 9.84838C38.1862 10.1757 39.7701 11.4425 39.5813 12.6777ZM50.8753 28.6623C49.7439 29.0546 48.407 28.1596 47.8888 26.663C47.3707 25.1663 47.8677 23.6357 48.9984 23.2434C50.1298 22.8511 51.4667 23.746 51.9849 25.2427C52.503 26.7393 52.006 28.27 50.8753 28.6623Z" fill="#F69D8E"/>
<path d="M36.6564 5.87483C36.0492 5.80831 35.4366 5.76825 34.8203 5.75313H34.8195L31.9766 3.96094C33.7795 4.52861 35.3286 5.18849 36.6564 5.87483V5.87483Z" fill="#EC3A1D"/>
</g>
</g>
<defs>
<clipPath id="clip0_398_915">
<rect width="64" height="64" rx="32" fill="white"/>
</clipPath>
<clipPath id="clip1_398_915">
<rect width="61.2" height="57.088" fill="white" transform="translate(-3.9043 2.04688)"/>
</clipPath>
</defs>
</svg>
